<svg width="912" height="180" viewBox="0 0 912 180" fill="none" xmlns="http://www.w3.org/2000/svg">
<path d="M849 61C852.674 64.2124 854.646 67.8053 856.625 72.1875C856.93 72.8573 857.235 73.5272 857.549 74.2173C861.042 82.0919 863.26 89.407 861 98C859.375 101.062 859.375 101.062 857 103C853.438 103.5 853.438 103.5 850 103C848.285 101.469 848.285 101.469 847 100C846.755 100.638 846.51 101.276 846.258 101.934C845.045 104.614 843.915 106.758 842 109C839.351 109.822 837.168 109.941 834.402 109.902C831.727 110.011 830.333 110.755 828 112C824.5 112.375 824.5 112.375 821 112C820.391 111.33 819.782 110.66 819.155 109.97C817.147 107.736 817.147 107.736 814.265 107.747C813.197 107.865 812.128 107.984 811.027 108.105C809.777 108.234 808.526 108.362 807.238 108.494C805.825 108.662 804.413 108.831 803 109C801.466 109.169 799.933 109.336 798.399 109.502C794.985 109.877 791.573 110.265 788.162 110.663C734.388 116.925 680.153 121.309 626 122C625.176 122.011 624.352 122.022 623.504 122.033C559.232 122.843 494.34 121.203 430.379 114.648C426.013 114.202 421.647 113.757 417.277 113.352C416.309 113.26 415.341 113.168 414.344 113.073C411.977 112.814 411.977 112.814 410 114C407.906 113.879 407.906 113.879 405.5 113.562C402.259 113.141 402.259 113.141 399 113C397.311 114.644 395.647 116.314 394 118C390.788 120.83 387.903 121.74 383.75 122.688C382.672 122.939 381.595 123.19 380.484 123.449C379.665 123.631 378.845 123.813 378 124C377.505 122.515 377.505 122.515 377 121C377.713 120.564 378.426 120.129 379.16 119.68C382.137 117.829 385.074 115.93 388 114C388.721 113.533 389.441 113.067 390.184 112.586C395.04 109.014 396.166 105.331 397.297 99.4883C398.068 96.7611 398.709 95.6427 401 94C405.427 94 407.433 94.4979 410.776 97.457C414.057 100.298 416.964 100.993 421.277 101.688C421.973 101.802 422.668 101.917 423.385 102.035C431.409 103.312 439.478 104.21 447.562 105C448.394 105.083 449.226 105.165 450.083 105.251C465.864 106.8 481.669 107.814 497.5 108.688C498.575 108.748 499.65 108.809 500.758 108.871C536.121 110.835 571.528 111.211 606.938 111.188C607.858 111.187 608.778 111.187 609.726 111.187C639.526 111.176 669.248 110.869 699 109C700.057 108.934 701.115 108.869 702.204 108.801C731.786 106.955 761.282 104.451 790.758 101.35C794.372 100.973 797.986 100.61 801.601 100.249C803.845 100.016 806.084 99.7575 808.324 99.4937C810.188 99.3015 810.188 99.3015 812.09 99.1055C813.129 98.9871 814.168 98.8688 815.238 98.7468C818.852 99.0781 820.336 100.632 823 103C825.928 103.129 828.355 102.23 831 101C833.342 98.6585 834.611 95.9921 836 93C836.66 93.33 837.32 93.66 838 94C838.625 96.5625 838.625 96.5625 839 99C839.99 99 840.98 99 842 99C842.268 97.8656 842.536 96.7313 842.812 95.5625C843.204 94.3869 843.596 93.2112 844 92C844.99 91.67 845.98 91.34 847 91C847.33 91.99 847.66 92.98 848 94C850.97 94 853.94 94 857 94C855.746 86.9346 853.438 81.2854 850 75C848.68 75 847.36 75 846 75C846.114 73.2284 846.242 71.4577 846.375 69.6875C846.445 68.7014 846.514 67.7152 846.586 66.6992C847 64 847 64 849 61ZM404 101C405 103 405 103 405 103L404 101Z" fill="white"/>
<path d="M298 59C300.25 59.125 300.25 59.125 303 60C306.862 64.7503 308.256 69.5522 309.688 75.4375C309.9 76.258 310.112 77.0785 310.33 77.9238C312.89 88.0414 315.498 98.8596 310.148 108.402C309 110 309 110 306.875 111.5C304.308 113.554 304.334 115.716 303.668 118.812C301.902 124.595 297.831 128.807 292.812 132C287.633 134.594 282.68 134.824 277 134C272.797 132.301 270.581 129.686 268 126C264.592 115.777 267.597 105.03 272.133 95.6602C272.419 95.1123 272.705 94.5645 273 94C271.583 94.3118 270.167 94.6245 268.75 94.9375C267.961 95.1115 267.172 95.2855 266.359 95.4648C264.231 95.9476 262.115 96.4616 260 97C260.324 97.5556 260.647 98.1112 260.98 98.6836C262.137 101.312 262.3 103.201 262.312 106.062C262.329 106.92 262.346 107.777 262.363 108.66C262 111 262 111 260.699 112.82C259 114 259 114 255.5 113.812C252 113 252 113 249 111C248.175 111.639 247.35 112.279 246.5 112.938C242.768 115.464 239.443 115.694 235 116C234.925 116.617 234.85 117.235 234.773 117.871C233.401 126.713 229.832 132.886 223 138.688C211.995 146.598 199.137 149.761 186 152C185.304 152.119 184.609 152.237 183.892 152.359C162.325 155.782 136.199 156.732 115 151C114.259 150.801 113.519 150.603 112.756 150.398C94.5462 145.312 75.8232 135.967 66 119C66 118.01 66 117.02 66 116C70.2139 117.483 73.5641 119.618 77.25 122.125C93.5538 132.842 111.613 139.611 131 142C131.817 142.111 132.635 142.222 133.477 142.336C160.881 145.475 201.741 145.399 224.414 127.527C226.224 125.785 227.684 124.146 229 122C228.411 119.646 227.733 117.313 227 115C226.725 112.235 226.81 109.797 227 107C229 105 229 105 231.863 104.875C234.155 104.958 236.447 105.041 238.738 105.125C242.067 104.997 244.1 104.613 247 103C248.363 101.252 248.363 101.252 249.312 99.1875C252.69 93.3536 257.627 90.558 264 88.6875C264.99 88.4606 265.98 88.2338 267 88C263.812 86.4059 260.371 86.8983 256.875 86.9375C256.121 86.942 255.367 86.9465 254.59 86.9512C252.727 86.963 250.863 86.9809 249 87C249.312 83.566 249.661 81.4549 251.742 78.6602C256.092 75.4618 260.849 76.3527 266 77C271.389 78.1637 276.662 79.7442 281.928 81.3662C284.94 82.2876 287.969 83.1432 291 84C289.756 88.7985 289.756 88.7985 288 91C285.785 91.4531 285.785 91.4531 283.188 91.625C280.478 91.8311 280.478 91.8311 278 93C272.472 101.192 270.013 110.218 271 120C272.263 123.248 272.263 123.248 275 125C281.878 127.016 286.759 125.228 293 122C295.866 120.128 297.528 119.038 298.938 115.938C299.199 113.668 299.199 113.668 297 111C297.375 107.312 297.375 107.312 298 104C300.97 103.01 303.94 102.02 307 101C308.544 95.2459 307.26 90.7718 305.75 85.1875C305.532 84.3361 305.314 83.4846 305.09 82.6074C303.626 76.9879 301.906 71.4846 300 66C300.467 70.3594 300.955 74.7104 301.547 79.0547C301.689 80.1211 301.689 80.1211 301.834 81.209C302.027 82.6407 302.224 84.0718 302.427 85.502C302.859 88.7612 303.055 90.8355 302 94C301.34 94 300.68 94 300 94C299.879 93.0448 299.758 92.0896 299.633 91.1055C298.844 85.0168 298.041 78.9679 296.875 72.9375C295.084 63.3734 295.084 63.3734 298 59ZM253 101C253.33 101.66 253.66 102.32 254 103C254.66 102.67 255.32 102.34 256 102C255.01 101.67 254.02 101.34 253 101Z" fill="white"/>
<path d="M179.436 88.3516C181.945 88.9862 184.458 89.5149 187 90C185.387 92.7123 183.751 95.3735 182 98C180.096 98.3372 180.096 98.3372 177.781 98.3008C176.513 98.3068 176.513 98.3068 175.22 98.313C174.322 98.3128 173.425 98.3127 172.5 98.3125C161.486 98.5913 155.815 101.472 147.75 108.875C145.143 111.25 144.246 111.949 140.688 112.688C138 112 138 112 136.125 110.125C135 108 135 108 135 106C133.602 106.706 133.602 106.706 132.176 107.426C112.72 117.031 93.7592 118.92 73 112C72.4019 112.33 71.8038 112.66 71.1875 113C68.1791 114.375 66.1711 113.689 63 113C62.34 113 61.68 113 61 113C60.1024 114.048 59.2563 115.14 58.4375 116.25C54.9835 120.475 51.0577 122.19 46 124C45.1406 122.344 45.1406 122.344 45 120C46.8645 118.003 48.6948 116.278 50.75 114.5C56.0963 109.595 58.4562 105.775 59.4727 98.3984C60 96 60 96 63 94C69.5503 93.7271 73.2079 97.0802 78.1562 101.09C88.5416 108.066 105.524 106.647 117.297 104.813C123.714 103.405 129.849 101.286 136 99C136.536 99.6806 137.072 100.361 137.625 101.063C139.849 103.293 139.849 103.293 142.789 103.004C146.683 101.786 149.898 100.038 153.375 97.9375C155.561 96.6381 157.747 95.3388 160 94C153.07 93.34 146.14 92.68 139 92C140 86 140 86 142 83C153.438 79.1874 168.336 85.3831 179.436 88.3516ZM65 100C66 102 66 102 66 102L65 100Z" fill="white"/>
<path d="M372 78C372.66 78 373.32 78 374 78C375.192 81.2829 376.349 84.5774 377.5 87.875C377.834 88.7928 378.168 89.7106 378.512 90.6562C381.094 98.1396 382.608 105.114 379.5 112.625C379.005 113.409 378.51 114.192 378 115C371.649 115.366 371.649 115.366 368.562 113.625C367 112 367 112 367 110C366.587 110.433 366.175 110.866 365.75 111.312C362.612 114.339 360.303 116.436 355.812 116.562C352.145 116.021 350.487 115.694 348 113C348 112.34 348 111.68 348 111C346.804 111.371 345.607 111.743 344.375 112.125C340.346 113.157 337.847 112.731 334 111C333.494 105.687 334.616 103.097 338 99C343.158 95 343.158 95 347 95C347.217 93.5769 347.217 93.5769 347.437 92.125C348 89 348 89 349 87C349.66 87 350.32 87 351 87C351.193 88.1924 351.387 89.3848 351.586 90.6133C351.849 92.1798 352.112 93.7462 352.375 95.3125C352.501 96.0982 352.628 96.8839 352.758 97.6934C352.887 98.4507 353.016 99.208 353.148 99.9883C353.264 100.685 353.379 101.381 353.498 102.099C353.972 104.308 353.972 104.308 356 107C357.968 106.969 357.968 106.969 360 106C361.964 101.537 362.088 98.2297 361.5 93.4375C360.946 88.9176 360.975 86.1199 363 82C363.66 82 364.32 82 365 82C365.489 83.8621 365.489 83.8621 365.988 85.7617C366.429 87.4038 366.871 89.0457 367.312 90.6875C367.632 91.9124 367.632 91.9124 367.959 93.1621C369.138 97.5102 370.29 101.317 373 105C373.66 105.33 374.32 105.66 375 106C373.8 98.2026 373.8 98.2026 371.312 90.75C369.854 86.5826 369.98 84.2486 371 80C371.33 79.34 371.66 78.68 372 78ZM341 102C341 102.99 341 103.98 341 105C342.32 105 343.64 105 345 105C345 103.68 345 102.36 345 101C342.925 100.851 342.925 100.851 341 102Z" fill="white"/>
<path d="M186 41C184.663 44.2309 183.65 45.5491 180.441 46.9375C179.683 47.2684 178.925 47.5993 178.143 47.9402C177.291 48.2899 176.44 48.6397 175.562 49C174.641 49.3839 173.72 49.7678 172.771 50.1633C149.929 59.4603 126.283 66.6575 102.688 73.75C101.13 74.2216 101.13 74.2216 99.5408 74.7027C96.5755 75.5977 93.6069 76.4806 90.6367 77.3594C89.3077 77.7616 89.3077 77.7616 87.9518 78.1719C83.5074 79.4696 79.6847 80.3225 75 80C80.3981 71.9028 90.009 69.8378 98.8438 67.0938C99.9907 66.7319 101.138 66.37 102.319 65.9972C106.044 64.8244 109.772 63.6618 113.5 62.5C115.421 61.8981 117.342 61.2953 119.263 60.6925C135.294 55.6639 151.348 50.7127 167.438 45.875C168.285 45.6195 169.133 45.364 170.007 45.1008C172.356 44.3944 174.707 43.6922 177.059 42.9922C178.084 42.6842 178.084 42.6842 179.13 42.37C183.767 41 183.767 41 186 41Z" fill="white"/>
<path d="M195 55C195.99 55 196.98 55 198 55C200.043 58.5827 200.071 61.264 199.977 65.3779C200.021 70.3346 200.824 75.2216 201.5 80.125C204.004 98.4208 204.004 98.4208 200 106C197.938 108.438 197.938 108.438 196 110C195.34 110 194.68 110 194 110C193.917 111.196 193.835 112.393 193.75 113.625C192.787 120.933 188.234 124.946 182.902 129.582C179.021 132.475 174.66 132.621 170 132C166.151 130.578 162.908 128.908 160 126C160 125.01 160 124.02 160 123C161.125 123.178 161.125 123.178 162.273 123.359C169.981 124.33 175.148 123.645 182 120C182.645 119.675 183.289 119.35 183.953 119.016C185.838 118.013 185.838 118.013 188 116C188.585 113.371 188.585 113.371 188 111C187.505 110.505 187.505 110.505 187 110C186.812 106.562 186.812 106.562 187 103C189 101 189 101 192.5 100.062C196.237 99.3327 196.237 99.3327 198 96C197.911 93.027 197.911 93.027 197.312 89.6875C197.115 88.4397 196.918 87.1919 196.715 85.9062C196.026 82.1405 195.223 78.4203 194.375 74.6875C191.435 61.3911 191.435 61.3911 195 55Z" fill="white"/>
<path d="M222.75 35.75C223.493 35.8325 224.235 35.915 225 36C226.545 41.8247 226.545 41.8247 225.094 44.9531C222.902 48.1336 220.857 50.9789 217 52C212.433 52.3322 209.129 52.0022 205 50C204.34 51.32 203.68 52.64 203 54C202.34 54 201.68 54 201 54C201.502 49.6058 202.684 46.9762 206 44C208.801 43.5715 211.142 43.7618 214 44C214.248 43.4225 214.495 42.845 214.75 42.25C216.779 38.5979 218.427 36.143 222.75 35.75ZM219 42C218.01 43.485 218.01 43.485 217 45C217.99 44.67 218.98 44.34 220 44C219.67 43.34 219.34 42.68 219 42Z" fill="white"/>
<path d="M329.688 39.6875C332 40 332 40 333 41C333.446 44.8323 333.136 46.7441 331.312 50.1875C328.214 53.9562 325.971 55.7904 321.062 56.3125C317.797 55.9793 315.06 55.1658 312 54C311.34 55.32 310.68 56.64 310 58C309.34 58 308.68 58 308 58C308.502 53.6058 309.684 50.9762 313 48C315.801 47.5715 318.142 47.7618 321 48C321.248 47.4225 321.495 46.845 321.75 46.25C323.758 42.6351 325.427 40.1829 329.688 39.6875ZM326 46C325.01 47.485 325.01 47.485 324 49C324.99 48.67 325.98 48.34 327 48C326.67 47.34 326.34 46.68 326 46Z" fill="white"/>
<path d="M408 18C408.409 21.34 408.586 23.949 406.91 26.9532C403.519 31.2343 400.576 33.3152 395 34C392.496 33.5745 390.403 32.8828 388 32C386.68 33.32 385.36 34.64 384 36C383.67 35.01 383.34 34.02 383 33C385.041 29.4287 386.558 27.295 390 25C390.784 25.0825 391.567 25.165 392.375 25.25C395.347 25.2673 395.347 25.2673 397.562 22.125C398.769 20.5782 398.769 20.5782 400 19C403 16.9094 404.569 16.7746 408 18ZM401 24C400.01 25.485 400.01 25.485 399 27C399.99 26.67 400.98 26.34 402 26C401.67 25.34 401.34 24.68 401 24Z" fill="white"/>
<path d="M216 59C216.33 59 216.66 59 217 59C219.396 75.7437 221.211 92.0717 221 109C219.515 109.495 219.515 109.495 218 110C217.284 104.111 216.572 98.2207 215.864 92.3303C215.622 90.3273 215.38 88.3243 215.136 86.3215C214.786 83.4399 214.439 80.5579 214.094 77.6758C213.984 76.7829 213.875 75.89 213.762 74.97C212.443 63.8955 212.443 63.8955 214.437 60.6875C214.953 60.1306 215.469 59.5738 216 59Z" fill="white"/>
<path d="M323 63C325.943 68.1235 326.007 73.7866 326.625 79.5625C326.757 80.7637 326.889 81.9648 327.025 83.2024C328.052 93.1698 328.329 102.992 328 113C327.01 112.67 326.02 112.34 325 112C324.448 107.199 323.896 102.397 323.346 97.5957C323.159 95.9664 322.972 94.3372 322.784 92.708C322.694 91.9201 322.603 91.1321 322.51 90.3203C322.42 89.5415 322.33 88.7626 322.238 87.9601C321.977 85.6709 321.723 83.3809 321.469 81.0908C321.196 78.6439 320.889 76.215 320.542 73.7764C320.424 72.8988 320.306 72.0213 320.184 71.1172C320.075 70.399 319.966 69.6808 319.853 68.9409C320.055 66.273 321.281 64.9821 323 63Z" fill="white"/>
<path d="M398 41C400.143 44.2148 400.415 45.766 400.852 49.5312C400.981 50.644 401.11 51.7567 401.243 52.9031C401.369 54.0901 401.495 55.277 401.625 56.5C401.757 57.7057 401.889 58.9114 402.025 60.1536C403.05 70.1372 403.33 79.9764 403 90C402.01 90.495 402.01 90.495 401 91C399.496 87.9913 399.423 84.771 399.062 81.4648C398.977 80.7122 398.892 79.9595 398.805 79.184C398.533 76.7689 398.266 74.3532 398 71.9375C397.821 70.3365 397.641 68.7356 397.461 67.1348C397.118 64.0843 396.781 61.0332 396.447 57.9817C396.189 55.637 395.908 53.301 395.602 50.9617C394.856 45.2565 394.856 45.2565 396.437 42.4375C396.953 41.9631 397.469 41.4888 398 41Z" fill="white"/>
<path d="M236 143C235.891 145.254 235.891 145.254 235 148C232.898 149.577 231.054 150.741 228.75 151.938C228.129 152.275 227.508 152.613 226.868 152.961C210.009 162 210.009 162 206 162C208.447 154.721 214.174 151.389 220.789 147.996C222.126 147.343 223.467 146.699 224.812 146.062C225.459 145.756 226.105 145.449 226.77 145.133C230.152 143.603 232.217 143 236 143Z" fill="white"/>
<path d="M414 119C414 121.184 414 121.184 413 124C410.548 126.059 407.801 127.529 405 129.062C404.269 129.483 403.538 129.904 402.785 130.338C389.267 138 389.267 138 384 138C387.532 130.114 394.841 126.303 402.25 122.562C402.948 122.208 403.645 121.854 404.364 121.489C407.881 119.779 410.023 119 414 119Z" fill="white"/>
<path d="M867 123C866.638 125.604 866.222 126.784 864.312 128.641C845.117 142 845.117 142 837 142C839.354 134.368 846.619 130.941 853.219 127.152C861.864 122.626 861.864 122.626 867 123Z" fill="white"/>
<path d="M362 122C361.663 124.764 361.237 125.796 359.094 127.641C337.563 141 337.563 141 331 141C335.393 131.142 346.736 126.376 356 122C359.576 120.788 359.576 120.788 362 122Z" fill="white"/>
<path d="M301 41C300.459 45.5366 300.459 45.5366 298.496 47.5195C293.359 50.7458 288.071 53.6477 282.688 56.4375C281.647 56.9872 281.647 56.9872 280.586 57.5481C275.516 60.0951 275.516 60.0951 272.777 59.5901C272.19 59.3954 271.604 59.2006 271 59C273.993 54.8102 277.36 52.1212 281.688 49.4375C282.306 49.0476 282.925 48.6578 283.562 48.2561C295.271 41 295.271 41 301 41Z" fill="white"/>
<path d="M264 39C263.459 43.5366 263.459 43.5366 261.496 45.5195C256.359 48.7458 251.071 51.6477 245.688 54.4375C244.647 54.9872 244.647 54.9872 243.586 55.5481C238.516 58.0951 238.516 58.0951 235.777 57.5901C235.19 57.3954 234.604 57.2006 234 57C240.116 48.6758 253.119 39 264 39Z" fill="white"/>
<path d="M121 118C126.875 120.875 126.875 120.875 128 122C128.235 127.529 128.235 127.529 127 130C124.237 129.477 121.674 128.891 119 128C118.34 129.32 117.68 130.64 117 132C113.179 131.469 110.938 130.503 108 128C108.66 125.69 109.32 123.38 110 121C112.64 121.33 115.28 121.66 118 122C118.99 120.68 119.98 119.36 121 118Z" fill="white"/>
<path d="M830.188 66.9375C831.089 66.9465 831.99 66.9556 832.918 66.9648C833.605 66.9764 834.292 66.9881 835 67C835.901 69.9451 836.025 70.9141 835.125 74C832.257 78.0496 828.792 79.7957 824 81C821.715 80.5977 821.715 80.5977 820 80C821.65 78.35 823.3 76.7 825 75C822.69 75.33 820.38 75.66 818 76C817.75 73.6875 817.75 73.6875 818 71C821.69 67.4369 825.21 66.8729 830.188 66.9375Z" fill="white"/>
<path d="M261.25 55.875C262.328 55.8931 263.405 55.9111 264.516 55.9297C265.745 55.9645 265.745 55.9645 267 56C267.598 57.8086 267.598 57.8086 268 60C265.519 64.8632 263.081 67.0694 258 69C254.625 69.6875 254.625 69.6875 252 70C253.152 67.532 254.048 65.9522 256 64C254.02 64.33 252.04 64.66 250 65C249 63 249 63 249.688 60.5C252.266 55.588 256.083 55.7627 261.25 55.875Z" fill="white"/>
<path d="M359 64C359.578 64.165 360.155 64.33 360.75 64.5C363.267 65.1446 363.267 65.1446 367 65C367.359 71.2191 367.359 71.2191 365.938 74.3125C363.131 76.7565 360.634 77.3224 357 78C353.563 77.625 353.563 77.625 351 77C349.974 72.5894 349.963 70.0737 352 66C353.32 66 354.64 66 356 66C355.67 67.65 355.34 69.3 355 71C357.358 70.1066 357.358 70.1066 358.125 66.9375C358.414 65.9681 358.703 64.9987 359 64Z" fill="white"/>
<path d="M94 48C93.7417 51.7017 93.2027 53.7213 91 56.75C87.1633 59.6275 83.6776 60.3172 79 61C79 60.01 79 59.02 79 58C81.5 56.3125 81.5 56.3125 84 55C81.36 55.33 78.72 55.66 76 56C76.125 53.1875 76.125 53.1875 77 50C81.6177 46.5367 88.6695 45.3347 94 48Z" fill="white"/>
<path d="M178 60C178.66 60 179.32 60 180 60C180.33 60.99 180.66 61.98 181 63C181.66 62.01 182.32 61.02 183 60C183.99 60 184.98 60 186 60C185.665 67.8438 185.665 67.8438 183.562 71.5C179.612 73.8127 175.509 73.8279 171 74C168.214 69.8204 169.204 67.8533 170 63C171.32 62.67 172.64 62.34 174 62C174 63.65 174 65.3 174 67C176.358 66.1066 176.358 66.1066 177.125 62.9375C177.414 61.9681 177.702 60.9987 178 60Z" fill="white"/>
<path d="M286 62C286.66 62 287.32 62 288 62C288.33 62.99 288.66 63.98 289 65C289.66 64.01 290.32 63.02 291 62C291.99 62 292.98 62 294 62C293.912 63.4178 293.804 64.8343 293.687 66.25C293.629 67.0389 293.571 67.8278 293.512 68.6406C292.884 71.5367 292.136 72.9376 290 75C287.301 75.6094 287.301 75.6094 284.312 75.75C283.319 75.8067 282.325 75.8634 281.301 75.9219C280.541 75.9477 279.782 75.9734 279 76C277.37 71.8783 276.737 69.293 278 65C279.32 64.67 280.64 64.34 282 64C282 65.65 282 67.3 282 69C284.358 68.1066 284.358 68.1066 285.125 64.9375C285.414 63.9681 285.702 62.9987 286 62Z" fill="white"/>
<path d="M68 127C66.6336 132.456 63.2599 134.262 58.75 137.063C58.0939 137.483 57.4377 137.904 56.7617 138.338C55.4673 139.168 54.1698 139.993 52.8691 140.813C50.2159 142.498 47.6083 144.246 45 146C45.3252 140.635 48.1967 137.493 52 134C62.0246 126.471 62.0246 126.471 68 127Z" fill="white"/>
<path d="M353 40C354.875 40.1875 354.875 40.1875 357 41C359 44.8864 359.363 48.4871 359.625 52.8125C359.7 53.9739 359.775 55.1354 359.852 56.332C359.901 57.2125 359.95 58.0929 360 59C359.01 59.33 358.02 59.66 357 60C356.734 59.3129 356.469 58.6259 356.195 57.918C355.842 57.0169 355.489 56.1159 355.125 55.1875C354.777 54.2942 354.429 53.4009 354.07 52.4805C353.012 49.8229 353.012 49.8229 351 47C351.321 44.3657 351.814 42.3729 353 40Z" fill="white"/>
<path d="M140 116C143 117 143 117 144.133 118.926C144.624 120.107 144.624 120.107 145.125 121.312C145.458 122.092 145.79 122.872 146.133 123.676C147.558 127.495 148.123 130.668 148.062 134.75C148.053 135.549 148.044 136.348 148.035 137.172C148.024 137.775 148.012 138.378 148 139C147.01 139 146.02 139 145 139C144.807 138.325 144.613 137.649 144.414 136.953C144.154 136.061 143.893 135.169 143.625 134.25C143.242 132.927 143.242 132.927 142.852 131.578C142.094 129.033 142.094 129.033 140.906 126.969C139.809 124.585 139.798 122.86 139.875 120.25C139.893 119.451 139.911 118.652 139.93 117.828C139.953 117.225 139.976 116.622 140 116Z" fill="white"/>
<path d="M236 73C239 74 239 74 240.133 75.8906C242.941 82.5677 244.143 87.6843 244 95C243.01 95.33 242.02 95.66 241 96C240.807 95.2407 240.613 94.4815 240.414 93.6992C240.154 92.7054 239.893 91.7115 239.625 90.6875C239.37 89.7014 239.114 88.7152 238.851 87.6992C238.081 84.8194 238.081 84.8194 236 82C235.805 79.7383 235.805 79.7383 235.875 77.3125C235.893 76.5043 235.911 75.696 235.93 74.8633C235.953 74.2484 235.976 73.6335 236 73Z" fill="white"/>
<path d="M856 109C859.438 110.188 859.438 110.188 863 112C864.062 114.438 864.062 114.438 864 117C863.062 119.312 863.062 119.312 862 121C858.179 120.469 855.938 119.503 853 117C853.75 111.25 853.75 111.25 856 109Z" fill="white"/>
<path d="M200 114C203.365 114.464 205.406 115.869 208 118C207.67 120.31 207.34 122.62 207 125C206.01 125.33 205.02 125.66 204 126C200.812 124.062 200.812 124.062 198 122C198.875 115.125 198.875 115.125 200 114Z" fill="white"/>
</svg>
