<svg width="125" height="69" viewBox="0 0 125 69" fill="none" xmlns="http://www.w3.org/2000/svg">
<path d="M103.995 3.24268L62.0569 17.5766L20.076 3.24268L0 32.4209L62.0569 53.6453L124.071 32.4209L103.995 3.24268Z" fill="#006754"/>
<path opacity="0.45" d="M7.3158 31.2299L58.7817 50.923L41.0877 33.3991C41.0877 33.3991 12.0371 26.381 7.3158 31.2299Z" fill="#004B40"/>
<path opacity="0.45" d="M116.798 31.2299L65.332 50.923L83.0261 33.3991C82.9836 33.3991 112.034 26.381 116.798 31.2299Z" fill="#004B40"/>
<path d="M62.0569 53.6453L0 32.4209L0 35.1856L62.0569 56.41L124.071 35.1856V32.4209L62.0569 53.6453Z" fill="#A85000"/>
<path d="M29.0082 66.4055L36.1964 47.563L59.3348 55.4743L29.0082 66.4055Z" fill="#773A08"/>
<path opacity="0.45" d="M31.0073 60.961L59.3349 55.4742L36.1965 47.5629L31.0073 60.961Z" fill="#773A08"/>
<path d="M62.057 54.496L29.0082 66.4054L31.4751 69L62.057 58.1113L92.5963 69L95.1058 66.4054L62.057 54.496Z" fill="#BDF8D4"/>
<path d="M95.1057 66.4054L87.875 47.5629L64.7366 55.4742L95.1057 66.4054Z" fill="#773A08"/>
<path opacity="0.45" d="M93.0641 60.961L64.7366 55.4742L87.875 47.5629L93.0641 60.961Z" fill="#773A08"/>
<path d="M62.0569 58.1114C63.3019 58.1114 64.3112 57.1021 64.3112 55.8571C64.3112 54.6121 63.3019 53.6028 62.0569 53.6028C60.8119 53.6028 59.8026 54.6121 59.8026 55.8571C59.8026 57.1021 60.8119 58.1114 62.0569 58.1114Z" fill="white" fill-opacity="0.5"/>
<path d="M102.209 3.24268L62.0569 23.2336L21.9049 3.24268C20.076 5.6671 5.35925 30.2091 5.35925 30.2091C5.52939 30.2091 5.65699 30.2517 5.82713 30.2517C42.7465 33.9521 52.9972 45.5639 56.3999 48.3711C59.8026 51.2209 62.0994 50.9231 62.0994 50.9231C62.0994 50.9231 64.3962 51.2209 67.7989 48.3711C71.2016 45.5639 81.4523 33.9521 118.372 30.2517C118.542 30.2517 118.669 30.2091 118.84 30.2091C118.754 30.2091 103.995 5.70964 102.209 3.24268Z" fill="#F5B304"/>
<path d="M118.755 30.2092C118.584 30.2092 118.457 30.2518 118.287 30.2518C81.3673 33.9522 71.1167 45.564 67.714 48.3712C64.3113 51.221 62.0144 50.9232 62.0144 50.9232C62.0144 50.9232 59.7176 51.221 56.3149 48.3712C52.9122 45.564 42.6615 33.9522 5.74217 30.2518C5.57203 30.2518 5.44443 30.2092 5.2743 30.2092C4.97656 30.6771 5.2743 31.0174 5.2743 31.0174C42.5765 34.6327 52.4869 46.287 55.8896 49.1368C59.2923 51.944 61.9719 51.7314 61.9719 51.7314C61.9719 51.7314 64.6515 51.944 68.0542 49.1368C71.457 46.3296 81.3674 34.6753 118.67 31.0174C118.755 31.0174 119.052 30.6771 118.755 30.2092Z" fill="#87D1A4"/>
<path d="M100.678 0.903324C80.1339 -4.0306 62.0145 12.8553 62.0145 12.8553C62.0145 12.8553 43.8951 -4.0306 23.3513 0.903324C23.3513 0.903324 17.5241 9.83542 9.48523 25.02C9.48523 25.02 49.9349 29.5711 62.0145 46.5421C74.0941 29.5711 114.544 25.02 114.544 25.02C106.505 9.83542 100.678 0.903324 100.678 0.903324Z" fill="#FBF9EF"/>
<path d="M114.544 25.02C114.544 25.02 74.094 29.5711 62.0144 46.5421C49.9773 29.5711 9.52761 25.02 9.52761 25.02C9.52761 25.02 9.52761 26.3811 7.27332 29.0607C7.27332 29.0607 43.98 31.6978 57.3356 46.9249C60.4832 50.4978 62.0144 50.0725 62.0144 50.0725C62.0144 50.0725 63.5881 50.4978 66.6931 46.9249C80.0062 31.6978 116.755 29.0607 116.755 29.0607C114.544 26.3386 114.544 25.02 114.544 25.02Z" fill="#BDF8D4"/>
<path d="M98.3808 2.6898C98.3808 2.6898 83.0261 -1.22332 62.0143 15.0671C41.0452 -1.18078 25.6479 2.6898 25.6479 2.6898L15.2697 22.8508C46.8298 25.0201 62.0143 40.9703 62.0143 40.9703C62.0143 40.9703 77.1989 25.0201 108.759 22.8508L98.3808 2.6898ZM62.0569 39.0562C62.0569 39.0562 47.8506 24.5097 17.7366 21.6599L26.4561 3.54048C26.4561 3.54048 41.5556 0.605643 62.0569 16.0029C82.5582 0.605643 97.6577 3.54048 97.6577 3.54048L106.377 21.6599C76.2632 24.5097 62.0569 39.0562 62.0569 39.0562Z" fill="#006754"/>
<path opacity="0.2" d="M65.9275 30.2489C71.5987 26.0664 89.3211 16.8108 101.231 18.0868" stroke="#BDF8D4" stroke-width="3.76364" stroke-linecap="round"/>
<path opacity="0.2" d="M65.9275 18.5123C70.9607 14.5714 84.0469 6.84985 96.1265 7.49108" stroke="#BDF8D4" stroke-width="3.76364" stroke-linecap="round"/>
<path opacity="0.2" d="M65.9275 24.467C71.386 20.2229 85.5781 11.9074 98.6785 12.598" stroke="#BDF8D4" stroke-width="3.76364" stroke-linecap="round"/>
<path opacity="0.2" d="M58.6967 30.2489C53.0255 26.0664 35.303 16.8108 23.3936 18.0868" stroke="#BDF8D4" stroke-width="3.76364" stroke-linecap="round"/>
<path opacity="0.2" d="M58.6967 18.5123C53.6635 14.5714 40.5772 6.84985 28.4976 7.49108" stroke="#BDF8D4" stroke-width="3.76364" stroke-linecap="round"/>
<path opacity="0.2" d="M58.6967 24.467C53.2381 20.2229 39.046 11.9074 25.9456 12.598" stroke="#BDF8D4" stroke-width="3.76364" stroke-linecap="round"/>
<path d="M62.0569 12.8554C62.0569 12.8554 62.4822 11.3667 63.2904 11.792C63.2904 11.792 62.78 35.9087 63.6307 45.3087C63.8433 47.648 65.8849 50.8381 66.6931 52.029H65.6297L65.332 53.0073C65.332 53.0073 62.1845 47.6906 62.0569 45.6064C61.4189 36.249 61.7592 15.1096 62.0569 12.8554Z" fill="#BC8F7B"/>
</svg>
