<svg width="114" height="165" fill="none" xmlns="http://www.w3.org/2000/svg">
    <g style="mix-blend-mode:soft-light" opacity=".3">
        <mask id="b" style="mask-type:alpha" maskUnits="userSpaceOnUse" x="0" y="0" width="114" height="146">
            <path d="M0 0h114v146H0V0Z" fill="url(#a)"/>
        </mask>
        <g mask="url(#b)">
            <path d="M132.124 64.813 37.723 119.22l-1.805 2.906c9.493-3.086 9.636 1.274 15.38 1.027-5.217 4.441-9.08 14.556-14.654 16.826-4.537 1.852-12.98 5.491-15.955 6.778l-6.852 11.11 2.493 3.341 119.911-61.53-2.371-33.34-1.746-1.525Z" fill="#001C18"/>
            <path d="M120.371 143.299c-4.709-2.905-5.264-13.759-8.936-18.874 5.865.884 9.703-3.237 19.614 2.483l-.636-6.039-95.909-51.513L6.656 96.377l-1.313 2.458 127.376 66.921 2.183-2.282-1.225-11.618c-2.557-1.687-9.51-6.22-13.305-8.558Z" fill="#001C18"/>
            <path d="m131.053 126.908-1.883 1.997a15.902 15.902 0 0 0-7.106-2.873c-4.071-.499-5.459 1.529-11.105.287a2.578 2.578 0 0 1-.846-3.347l12.086-1.461 8.854 5.397Z" fill="#001C18"/>
            <path d="M120.371 143.299c-4.709-2.905-5.264-13.759-8.936-18.874 5.865.884 9.703-3.237 19.614 2.483l-.636-6.039-101.25-53.113L6.655 96.378l128.256 67.083-1.225-11.618c-2.567-1.673-9.52-6.206-13.315-8.544Z" fill="#004B40"/>
            <path d="M80.395 94.628 43.73 115.76l30.291 15.847 38.859-19.943-32.484-17.037Z" fill="#001C18"/>
            <path d="m35.918 122.126 1.62 2.539s2.646-2.046 5.787-.895c3.14 1.15 5.93 3.108 10.29 1.214a7.4 7.4 0 0 0-.755-4.875s-10.77-1.565-10.998-1.53c-.227.035-5.944 3.547-5.944 3.547Z" fill="#001C18"/>
            <path d="m37.722 119.22-1.804 2.906c9.493-3.086 9.636 1.274 15.38 1.027-5.217 4.441-9.08 14.556-14.654 16.826-4.537 1.852-12.98 5.491-15.955 6.778l-6.852 11.11 119.955-60.028-1.668-33.026-94.401 54.407Z" fill="#004B40"/>
            <path d="m80.328 92.711-43.822 22.483 30.624 16.089 2.84-1.503 10.358-37.069Z" fill="#001C18"/>
            <path d="m80.328 92.711-40.755 20.911L69.97 129.78l10.358-37.069Z" fill="#001C18"/>
            <path d="M9.132 95.123s52.715 29.073 54.654 30.074c1.939 1.001 5.866 2.664 11.194.051 5.328-2.612 56.808-28.433 56.808-28.433l-1.168-33.394-.487-.82-51.127 24.902-45.389-23.615L8.983 94.156l.15.967Z" fill="#001C18"/>
            <path d="M8.983 94.156s52.715 29.073 54.654 30.078c1.94 1.005 5.866 2.66 11.194.051 5.328-2.609 56.091-28.043 56.091-28.043l-.786-33.622-51.283 23.896-45.388-23.612L8.983 94.156Z" fill="#87D1A4"/>
            <path d="M35.666 61.925 10.407 93.658l52.715 29.072s2.388-1.597 4.21-1.879c1.822-.282 6.338 2.701 6.338 2.701l54.822-27.753-.453-33.296-5.299-1.434-42.9 23.342-42.436-22.755-1.738.27Z" fill="#EFE8C5"/>
            <path d="M14.969 91.54s11.824 5.972 21.595 9.619c9.77 3.647 28.594 13.523 30.769 19.672 4.573-6.322 10.361-14.472 23.11-17.853 12.75-3.381 28.537-7.519 30.54-9.146.25-5.677 1.785-32.796 1.785-32.796a117.861 117.861 0 0 1-13.04 3.807c-6.81 1.52-27.503 9.33-29.867 19.565-4.315-7.229-9.612-11.106-19.14-13.767-9.527-2.662-23.317-8.985-23.317-8.985L14.97 91.54Z" fill="#FBF9EF"/>
            <path d="M67.342 120.838c4.564-6.329 10.352-14.479 23.102-17.86 12.749-3.381 28.536-7.519 30.539-9.146.25-5.677 1.785-32.796 1.785-32.796a117.861 117.861 0 0 1-13.04 3.807c-6.81 1.52-27.503 9.33-29.867 19.565l-12.519 36.43Z" fill="#FBF9EF"/>
            <path d="M99.814 101.716c-23.716 8.683-32.472 19.122-32.472 19.122 1.834-.284 6.338 2.701 6.338 2.701l54.823-27.753s-5.117-1.336-7.538-1.935c-2.568 2.042-7.7 2.857-21.15 7.865ZM49.824 105.412c-8.628-4.115-34.855-13.872-34.855-13.872l-4.582 2.117L63.1 122.73s2.388-1.598 4.21-1.88c.07-5.845-8.864-11.323-17.488-15.438Z" fill="#FBF9EF"/>
            <path d="M49.824 105.412c-8.628-4.115-34.855-13.872-34.855-13.872s34.34 16.017 38.7 18.072c4.36 2.054 12.844 7.692 13.673 11.226.038-5.833-8.895-11.311-17.518-15.426ZM14.694 92.806s44.501 22.161 52.648 28.032c-6.204-6.086-38.536-22.48-52.648-28.032ZM13.38 93.01l6.502 3.363 6.487 3.398 12.947 6.85 12.9 6.926 6.44 3.492 6.417 3.524-6.502-3.364-6.487-3.398-12.946-6.85-12.902-6.93-6.44-3.488-6.416-3.524ZM69.176 120.554c1.951-1.485 3.949-2.903 5.952-4.318 2.002-1.414 4.048-2.762 6.109-4.096 1.029-.671 2.065-1.326 3.117-1.959a64.72 64.72 0 0 1 3.201-1.838c2.194-1.129 4.453-2.105 6.722-3.045 2.268-.941 4.573-1.78 6.872-2.623 2.3-.843 4.6-1.686 6.919-2.487 2.319-.8 4.607-1.609 6.933-2.447a67.374 67.374 0 0 0 6.812-2.72 30.127 30.127 0 0 1-3.298 1.635c-1.122.497-2.257.96-3.388 1.425-2.282.906-4.57 1.771-6.861 2.646-4.58 1.735-9.187 3.402-13.707 5.259-2.265.912-4.52 1.862-6.686 2.958a51.412 51.412 0 0 0-3.189 1.787l-3.146 1.878a256.412 256.412 0 0 0-6.21 3.915 1122.964 1122.964 0 0 0-6.152 4.03Z" fill="#FCCE98"/>
            <path d="M71.136 120.766a168.088 168.088 0 0 1 12.418-7.397A151.23 151.23 0 0 1 90 110.076c1.08-.531 2.182-1.021 3.278-1.526 1.097-.506 2.211-.969 3.322-1.431a884.105 884.105 0 0 0 13.276-5.692 521.934 521.934 0 0 0 6.604-2.93c1.098-.493 2.196-.986 3.283-1.498 1.087-.512 2.182-1.02 3.238-1.602-4.218 2.33-8.629 4.286-13.007 6.29-4.379 2.003-8.809 3.888-13.25 5.774-4.457 1.819-8.804 3.92-13.049 6.156a189.528 189.528 0 0 0-6.332 3.472 176.027 176.027 0 0 0-6.227 3.677Z" fill="#FCCE98"/>
            <path d="m66.045 113.228-.474-.606c-1.58-1.961-8.23-6.3-14.766-9.171-6.248-2.748-24.729-11.098-24.917-11.179l-.443-.218 17.99-25.509.375.175c.157.062 15.665 6.049 21.798 8.819 6.132 2.77 11.355 7.75 11.408 7.804l.362.439-.043.113c-.06.165-6.19 16.387-11.17 29.052l-.12.281Zm-39.8-21.212c2.048.91 18.818 8.494 24.707 11.089 5.888 2.595 12.617 6.737 14.705 9.045 4.73-12.049 10.451-27.165 11.008-28.642-.708-.66-5.554-5.09-11.212-7.647-5.815-2.626-20.084-8.163-21.645-8.756L26.245 92.016ZM72.217 112.104l-.727 1.009 10.087-30.202.02-.003c.04-.06 4.127-5.93 9.472-8.876 8.104-4.237 22.475-7.955 22.619-8.002l.948-.245-.039.276-4.072 27.135-.018.126-.787.203c-31.88 7.141-37.434 18.471-37.503 18.579Zm9.715-29.015-9.22 27.662c2.376-3.15 11.016-11.746 36.821-17.565 1.086-7.23 3.65-24.34 4.009-26.728-2.025.534-14.82 3.996-22.265 7.886-5.123 2.801-9.077 8.34-9.346 8.745Z" fill="#004B40"/>
        </g>
    </g>
    <defs>
        <linearGradient id="a" x1="0" y1="0" x2="125.694" y2="12.279" gradientUnits="userSpaceOnUse">
            <stop offset=".009" stop-color="#006754"/>
            <stop offset="1" stop-color="#87D1A4"/>
        </linearGradient>
    </defs>
</svg>
